<?xml version="1.0" encoding="UTF-8"?>
<svg xmlns="http://www.w3.org/2000/svg" version="1.1" viewBox="0 0 417.1 524.8">
  <!-- Generator: Adobe Illustrator 29.0.1, SVG Export Plug-In . SVG Version: 2.1.0 Build 192)  -->
  <defs>
    <style>
      .st0 {
        fill: #f49b80;
      }

      .st1, .st2 {
        fill: #fff;
      }

      .st3 {
        fill: #5d2218;
      }

      .st4 {
        isolation: isolate;
      }

      .st5 {
        fill: #d8ccd3;
      }

      .st5, .st6, .st7 {
        mix-blend-mode: multiply;
      }

      .st8 {
        fill: #bfe5fb;
      }

      .st9 {
        fill: #270700;
      }

      .st6 {
        fill: #beb1b0;
      }

      .st10 {
        fill: #7d4e24;
      }

      .st7 {
        fill: #ebdeda;
      }

      .st11 {
        fill: #a16331;
      }

      .st2 {
        mix-blend-mode: soft-light;
      }

      .st12 {
        fill: #46180c;
      }

      .st13 {
        fill: #b71918;
      }
    </style>
  </defs>
  <g class="st4">
    <g id="Capa_1">
      <g>
        <g>
          <path class="st13" d="M365,267.7c0,5.5-8.2,5.4-19.1-2.2-12.2-8.7-27.8-27-38.9-58-28.6-25.8-63.9-41.1-100.4-35.8-35.7,5.1-79.8-1.4-85.2-22.4-.2-.6-.3-1.2-.4-1.8-.3-1.7-.4-3.4-.5-5.1,0-.1,0-.2,0-.4,0-1.6.1-3.1.4-4.6,0,0,0-.2,0-.3h0c6.9-40.8,98.8-70.2,131.7-70.2s37.9,25,48.2,44c22.6,41.1,64.1,147.5,64.1,156.8Z"/>
          <path class="st5" d="M345.9,265.5c-12.2-8.7-27.8-27-38.9-58-28.6-25.8-63.9-41.1-100.4-35.8-35.7,5.1-79.8-1.4-85.2-22.4-.2-.6-.3-1.2-.4-1.8-.6-3.5-.6-6.9,0-10.3.5,0,.9,0,1.3-.1,18.9-3.1,38.4-2.1,57.6-3,19.6-.8,39-3.8,58.4-5.3,17.6-1.3,30.9,9.8,47.9,4.6.4-.1,2.9-26.6,3.3-26.7,1.8,2.8,10.1,47.3,11.4,50.4,8.7,21.1,4.9,32.8,19.6,51-1,10.2,15,41.1,25.4,57.4Z"/>
          <path class="st1" d="M292.3,149.4c-4.2-4.5-44.9-7.5-85.7-7.1-40.9.4-82,4.2-85.2,7.1-3.1,2.9-.4,12.3-.5,20.6,0,8.3-3.1,15.4.5,20.4,7.2,9.9,164.4,5.4,170.9,0,3.5-2.9.8-11.1.6-20.4-.1-7.7,3.2-16.5-.6-20.6Z"/>
          <path class="st8" d="M292.3,149.4c-.7-.8,1.1,14-22,16.8.1,9.3,18.7,5.3,15.5,8.3-2.9,2.6-38.8-3.5-75.6-2.8-38.9.7-78.8,7.9-82.2,2.8-3.3-4.9,20-3.3,20.1-11.5-27.3,3.2-26.1-14.1-26.7-13.6-3.1,2.9-.4,12.3-.5,20.6,0,8.3-3.1,15.4.5,20.4,7.2,9.9,164.4,5.4,170.9,0,3.5-2.9.8-11.1.6-20.4-.1-7.7,3.2-16.5-.6-20.6Z"/>
          <path class="st1" d="M334.7,283.3c0,13.9,11.2,25.1,25.1,25.1s25.1-11.2,25.1-25.1-11.2-25.1-25.1-25.1-25.1,11.2-25.1,25.1Z"/>
          <path class="st8" d="M359.8,293.2c-11.2,0-20.7-7.3-23.9-17.5-.8,2.4-1.2,4.9-1.2,7.6,0,13.9,11.2,25.1,25.1,25.1s25.1-11.2,25.1-25.1-.4-5.2-1.2-7.6c-3.2,10.1-12.7,17.5-23.9,17.5Z"/>
          <path class="st2" d="M143.2,120.5c7.3,10.3,45.5-.9,56-2.6,16.4-2.7,33-5.4,49.2-1.5,5.9,1.4,12.9,6.1,19,5,7.3-1.4,9.2-10.2,10.6-17.2,2.6-13.6-11.3-22.5-21.8-26.9-20.5-8.6-35.9-2.1-55.4,6.8-17,7.9-35.5,14.8-49.8,26.9l-7.8,9.5Z"/>
          <path class="st2" d="M297.5,122.2c3.5,3.9,3.8,13.4,5.2,19,1.8,7.2,8.1,40.9,11.5,47.5,3.8,7.3,30.4,63.3,39.5,63.1,1.9-9.4-28.3-83-32.3-91.6-5.2-11.3-13-22-17-33.6l-6.9-4.3Z"/>
        </g>
        <path class="st12" d="M302,173.4c11.1-24.2,44.4-24.4,51.4-57.9,6.6-31.7-21.8-77.9-24.6-83.3-2.8-5.4-9.6-3.1-6.9,4.9,2.7,7.9,14,47.6,14,47.6,0,0-15.5,1.8-25-6-9.5-7.8-11-21.1-13-25-2-3.9-6.7-2.7-6.7,4,0,6.7-1.5,29.5,8.3,36.3,9.9,6.8,34.7,6.3,34.7,6.3,0,0,5.5,13.6-6.5,27.7-12,14.1-40.6,15.5-48.9,36.4-8.3,20.9,12,33.3,23.1,9.1Z"/>
        <path class="st10" d="M344.7,427.6c-9.7,36.3-39.5,68-125.1,68s-129.7-26-139.5-68c-10.2-43.6-7.7-176.4,27.1-213.6,41.5-44.3,166-48.2,202.3-1.3,27,34.8,52.1,151.5,35.2,214.9Z"/>
        <path class="st7" d="M235,443.1c-85.6,0-129.7-26-139.5-68-6.6-28-7.9-92.9,1.3-145.5-24.9,49.9-25.8,159.2-16.7,198,9.8,42,53.9,68,139.5,68s115.4-31.7,125.1-68c2.2-8.4,3.7-17.7,4.6-27.6-16.2,24.8-49.1,43.2-114.2,43.2Z"/>
        <path class="st10" d="M273.5,189.7c63.1,10,99.5-33.3,113.5-23.1,18.9,13.7,2.8,101.6-98.1,78.8-33.6-8.4-54.5-61.8-15.4-55.6Z"/>
        <path class="st11" d="M387,166.5c16.2,11.7,6.7,77.9-59.8,82.3-2.6-16.8-15.7-25.5-11.4-26.3,45.5-8.6,58.4-65.3,71.2-56Z"/>
        <path class="st0" d="M374.6,172.9c-11,14-26.9,43.7-58.8,49.7-3.3.6,3.9,6,8.5,16.3,55.3-3.7,47.9-38.2,50.4-66Z"/>
        <path class="st10" d="M143.6,189.7c-63.1,10-99.5-33.3-113.5-23.1-18.9,13.7-2.8,101.6,98.1,78.8,33.6-8.4,54.5-61.8,15.4-55.6Z"/>
        <path class="st11" d="M30.1,166.5c-16.2,11.7-6.7,77.9,59.8,82.3,2.6-16.8,15.7-25.5,11.5-26.3-45.5-8.6-58.4-65.3-71.2-56Z"/>
        <path class="st0" d="M50.9,215.6c9.2,17,29.1,24.4,41,25.6,4.4-11.8,12.9-18,9.4-18.6-30.5-5.7-46.3-33-57.3-47.7-4.1-5.5-2.3,26.4,6.9,40.7Z"/>
        <path class="st12" d="M286.4,443.7c0,27.2-33.1,49.3-73.9,49.3s-73.9-22.1-73.9-49.3,33.1-49.3,73.9-49.3,73.9,22.1,73.9,49.3Z"/>
        <path class="st6" d="M232.7,466.6c-40.8,0-73.9-22.1-73.9-49.3s.4-5.5,1.1-8.2c-13.1,8.9-21.3,21.1-21.3,34.6,0,27.2,33.1,49.3,73.9,49.3s66.9-17.8,72.8-41.1c-13.4,9.1-32,14.7-52.6,14.7Z"/>
        <path class="st3" d="M252.3,417.4c0,9.1-17.8,16.4-39.7,16.4s-39.8-7.3-39.8-16.4,17.8-16.4,39.8-16.4,39.7,7.3,39.7,16.4Z"/>
        <path class="st9" d="M164.8,351.1c0,7.2-5.9,13.1-13.1,13.1s-13.1-5.9-13.1-13.1,5.9-13.1,13.1-13.1,13.1,5.9,13.1,13.1Z"/>
        <path class="st9" d="M278.5,351.1c0,7.2-5.9,13.1-13.1,13.1s-13.1-5.9-13.1-13.1,5.9-13.1,13.1-13.1,13.1,5.9,13.1,13.1Z"/>
        <path class="st10" d="M292.2,220.3l-38.5-33.7s10.3-22.6,19.1-24.1c8.9-1.5,33.8,2.6,35.9,13.4,2.2,10.8-16.5,44.4-16.5,44.4Z"/>
        <path class="st7" d="M276.3,175.9c1.9-5.3,4.6-9.7,8-13.1-4.5-.6-8.7-.7-11.4-.2-8.9,1.5-19.1,24.1-19.1,24.1l21.7,19c-2-9.9-2.3-20.5.9-29.7Z"/>
        <path class="st12" d="M107.1,182.4c-10.3-24.5-43.7-25.8-49.6-59.5-5.6-31.9,24.2-77.2,27.2-82.5,3-5.3,9.7-2.8,6.7,5.1-3,7.9-15.5,47.1-15.5,47.1,0,0,15.4,2.2,25.2-5.3,9.8-7.5,11.7-20.7,13.8-24.5,2.1-3.8,6.7-2.5,6.6,4.2-.1,6.7.6,29.5-9.4,36-10.1,6.5-34.9,5.2-34.9,5.2,0,0-5.9,13.4,5.6,27.9,11.5,14.5,40.1,16.7,47.7,37.9,7.6,21.2-13.1,32.9-23.4,8.4Z"/>
        <path class="st10" d="M115.5,229.6l39.5-32.5s-9.6-22.9-18.4-24.6c-8.8-1.8-33.8,1.6-36.3,12.3-2.5,10.7,15.2,44.9,15.2,44.9Z"/>
      </g>
    </g>
  </g>
</svg>